<?xml version="1.0" encoding="UTF-8"?>
<svg xmlns="http://www.w3.org/2000/svg" viewBox="0 0 2000 2000">
  <defs>
    <style>
      .cls-1 {
        opacity: .51;
      }

      .cls-1, .cls-2 {
        mix-blend-mode: screen;
      }

      .cls-1, .cls-2, .cls-3, .cls-4, .cls-5, .cls-6 {
        fill: #ee4323;
      }

      .cls-2, .cls-5 {
        opacity: .5;
      }

      .cls-3, .cls-4, .cls-7, .cls-5 {
        mix-blend-mode: multiply;
      }

      .cls-3, .cls-7 {
        opacity: .8;
      }

      .cls-4 {
        opacity: .3;
      }

      .cls-7 {
        fill: #989898;
      }

      .cls-8 {
        isolation: isolate;
      }

      .cls-9 {
        fill: #912600;
      }

      .cls-10 {
        fill: #234972;
      }

      .cls-11 {
        fill: #ff6a29;
      }
    </style>
  </defs>
  <g class="cls-8">
    <g id="Layer_1" data-name="Layer 1">
      <g>
        <g>
          <path class="cls-6" d="M604.14,1086.8l34.63,90.87c3.57,9.1-.54,13.75-10.35,13.75-8.39,0-13.75,0-17.14-8.57l-4.64-11.78h-45.52l-4.46,11.96c-3.04,8.21-9.1,8.39-17.32,8.39-9.82,0-13.75-4.64-10.35-13.75l34.81-90.87c3.39-9.28,9.82-12.85,20.17-12.85s16.6,3.39,20.17,12.85ZM569.51,1148.57h28.92l-14.46-43.02-14.46,43.02Z"/>
          <path class="cls-6" d="M743.2,1160.71c4.82-3.39,9.1-6.78,13.92-6.78,2.14,0,4.11.71,6.43,2.14,7.5,4.82,8.57,14.28,2.14,20.17-11.07,11.07-27.49,17.67-44.45,17.67-34.81,0-61.95-27.14-61.95-61.23s27.14-61.23,61.77-61.23c17.14,0,33.56,6.61,44.81,17.67,6.25,6.07,5,13.21-2.5,18.21-2.86,1.79-5.36,2.5-7.68,2.5-4.11,0-7.86-2.14-11.96-5-6.25-5.18-14.28-8.03-22.32-8.03-19.64,0-35.17,15-35.17,35.88s15.53,35.53,35.17,35.53c8.21,0,15.71-2.5,21.78-7.5Z"/>
          <path class="cls-6" d="M874.77,1086.8l34.63,90.87c3.57,9.1-.54,13.75-10.35,13.75-8.39,0-13.75,0-17.14-8.57l-4.64-11.78h-45.52l-4.46,11.96c-3.04,8.21-9.1,8.39-17.32,8.39-9.82,0-13.75-4.64-10.35-13.75l34.81-90.87c3.39-9.28,9.82-12.85,20.17-12.85s16.6,3.39,20.17,12.85ZM840.14,1148.57h28.92l-14.46-43.02-14.46,43.02Z"/>
          <path class="cls-6" d="M957.96,1191.42c-8.93,0-14.82-4.46-14.82-13.57v-90.51c0-8.93,4.28-13.39,13.39-13.39h30.17c39.63,0,64.45,23.39,64.45,58.73s-24.81,58.73-64.45,58.73h-28.74ZM970.1,1099.3v66.77h16.6c24.46,0,37.49-12.5,37.49-33.38s-13.03-33.38-37.49-33.38h-16.6Z"/>
          <path class="cls-6" d="M1096.31,1191.42c-8.93,0-14.1-4.46-14.1-13.57v-90.33c0-8.93,5.18-13.57,14.1-13.57h61.05c8.21,0,12.5,4.11,12.5,12.32s-4.28,12.5-12.5,12.5h-48.2v21.42h46.42c8.03,0,11.96,4.11,11.96,11.96s-3.93,11.96-11.96,11.96h-46.42v22.49h49.09c8.21,0,12.5,4.11,12.5,12.32s-4.28,12.5-12.5,12.5h-61.95Z"/>
          <path class="cls-6" d="M1247.69,1087.7l24.64,63.73,24.64-63.73c3.57-9.1,10.35-13.75,20.17-13.75s15.17,4.82,16.25,14.82l8.03,89.08c.71,9.1-3.21,13.57-12.32,13.57s-14.1-4.46-15-13.57l-2.32-26.42-1.79-37.85-21.42,62.66c-2.32,8.03-7.86,11.78-16.07,11.78s-13.75-3.75-16.42-11.78l-21.6-62.84-1.43,38.03-2.5,26.42c-.71,9.1-5.71,13.57-14.82,13.57s-13.21-4.46-12.32-13.57l8.03-89.08c.89-10,6.25-14.82,16.07-14.82s16.6,4.64,20.17,13.75Z"/>
          <path class="cls-6" d="M1406.75,1148.75l-34.63-61.95c-4.82-8.57-.71-12.85,9.1-12.85s13.57,1.07,18.03,9.82l21.07,39.81,20.89-39.81c4.46-8.75,8.39-9.82,18.21-9.82s13.75,4.28,8.93,12.85l-34.63,61.95v29.1c0,9.1-4.46,13.57-13.39,13.57s-13.57-4.46-13.57-13.57v-29.1Z"/>
        </g>
        <path class="cls-10" d="M666.03,897.72h-71.65c-6.19,6.8-15.11,11.07-25.03,11.07-12.73,0-23.81-7.03-29.59-17.42h25.47l11.64-16.08v-.76l-11.64-14.39h-26.3c5.49-11.26,17.05-19.02,30.42-19.02,11.34,0,21.38,5.58,27.52,14.14h71.64c16.28,0,24.41-8.14,24.41-24.77s-8.14-24.41-24.41-24.41h-115.34c-17.33,0-29.72,8.84-29.72,26.54v179.38c0,18.04,8.84,26.89,26.89,26.89s26.54-8.85,26.54-26.89v-66.87h89.16c15.92,0,23.71-7.78,23.71-23.7s-7.78-23.71-23.71-23.71Z"/>
        <path class="cls-10" d="M897.77,877.06h10.44l5.55-24.14c3.26-12.07,10.77-18.27,23.49-18.27s18.92,6.2,18.92,18.92v23.49h24.47c12.72,0,18.92,6.2,18.92,18.92s-6.2,19.25-18.92,19.25h-24.47v57.1c0,20.88,7.18,26.75,24.8,25.12,12.72-.33,18.6,3.26,18.6,16.31,0,23.82-20.55,25.12-38.83,25.12-32.3,0-52.53-15.01-52.53-47.31v-76.35h-10.44c-12.07,0-16.64-9.79-16.64-18.92s4.57-19.25,16.64-19.25Z"/>
        <path class="cls-10" d="M1206.73,1014.75v-114.19c0-13.38,8.81-20.23,22.51-20.23,9.79,0,14.36,3.26,17.62,11.75l2.61,8.81c9.14-13.7,23.49-23.82,40.13-23.82,14.36,0,23.16,6.85,23.16,21.86,0,17.94-10.77,21.53-26.43,21.53-17.94,0-31.97,12.4-31.97,36.54v57.75c0,16.31-7.83,24.14-23.82,24.14s-23.82-7.83-23.82-24.14Z"/>
        <path class="cls-10" d="M1444.11,887.88c2.31-2.62,3.72-6.07,3.72-9.84,0-8.22-6.66-14.89-14.88-14.89-7.73,0-14.1,5.91-14.81,13.46-6.92-1.62-14.43-2.48-22.49-2.48s-15.92,1-23.11,2.89c-.53-7.75-6.98-13.86-14.86-13.86s-14.88,6.67-14.88,14.89c0,4.17,1.71,7.93,4.47,10.63-20.93,14.76-33.19,39.46-33.19,68.01,0,46,31.32,82.22,81.57,82.22,19.25,0,36.87-5.22,49.92-11.09,13.38-6.52,10.77-17.62,3.59-27.73-4.57-5.88-8.81-8.16-14.03-8.16-3.26,0-6.85.65-11.09,2.28-5.88,2.61-13.7,4.57-23.82,4.57-17.95,0-31-8.81-36.54-26.76l98.21.33c11.42,0,14.68-6.52,14.68-15.99,0-28.99-11.24-53.89-32.44-68.46ZM1362.36,943.62c4.24-19.25,15.99-30.02,34.91-30.02,20.88,0,30.34,12.73,30.99,30.02h-65.9Z"/>
        <polygon class="cls-1" points="705.11 929.91 705.87 929.92 705.87 1038.89 705.11 1038.89 705.11 929.91"/>
        <g>
          <polygon class="cls-7" points="863.75 985.76 863.75 1038.13 810.61 1038.13 757.48 1038.13 705.11 1038.13 705.11 1038.89 758.24 1038.89 811.37 1038.89 864.51 1038.89 864.51 985.76 863.75 985.76"/>
          <polygon class="cls-3" points="863.75 878.98 864.5 878.99 864.5 985.76 811.37 985.76 811.37 985 863.75 985 863.75 878.98"/>
          <polygon class="cls-6" points="863.75 877.24 864.51 877.25 864.51 984.02 811.37 984.02 811.37 876.51 812.13 876.52 863.75 877.24"/>
          <polygon class="cls-1" points="811.37 876.51 812.13 876.52 812.13 984.02 811.37 984.02 811.37 876.51"/>
          <circle class="cls-5" cx="842.49" cy="908.87" r="18.98"/>
          <circle class="cls-11" cx="837.94" cy="904.32" r="18.98"/>
          <path class="cls-2" d="M819.72,905.08c0-10.48,8.5-18.98,18.98-18.98,5.05,0,9.63,1.97,13.03,5.19-3.46-3.66-8.36-5.95-13.79-5.95-10.48,0-18.98,8.5-18.98,18.98,0,5.43,2.29,10.33,5.95,13.79-3.21-3.4-5.19-7.98-5.19-13.03Z"/>
          <path class="cls-4" d="M847.97,888.21c1.82,2.91,2.87,6.35,2.87,10.03,0,10.48-8.5,18.98-18.98,18.98-3.68,0-7.12-1.05-10.03-2.87,3.35,5.37,9.31,8.94,16.1,8.94,10.48,0,18.98-8.5,18.98-18.98,0-6.8-3.57-12.75-8.94-16.1Z"/>
          <circle class="cls-5" cx="842.49" cy="962" r="18.98"/>
          <circle class="cls-11" cx="837.94" cy="957.45" r="18.98" transform="translate(-286.42 1553) rotate(-76.72)"/>
          <path class="cls-2" d="M819.72,958.21c0-10.48,8.5-18.98,18.98-18.98,5.05,0,9.63,1.97,13.03,5.19-3.46-3.66-8.36-5.95-13.79-5.95-10.48,0-18.98,8.5-18.98,18.98,0,5.43,2.29,10.33,5.95,13.79-3.21-3.4-5.19-7.98-5.19-13.03Z"/>
          <path class="cls-4" d="M847.97,941.34c1.82,2.91,2.87,6.35,2.87,10.03,0,10.48-8.5,18.98-18.98,18.98-3.68,0-7.12-1.05-10.03-2.87,3.35,5.37,9.31,8.94,16.1,8.94,10.48,0,18.98-8.5,18.98-18.98,0-6.8-3.57-12.75-8.94-16.1Z"/>
          <polygon class="cls-6" points="757.48 876.76 758.24 876.77 758.24 985.02 705.11 985.02 705.11 876.03 705.87 876.04 757.48 876.76"/>
          <polygon class="cls-3" points="757.48 876.76 758.24 876.77 758.24 985.02 705.11 985.02 705.11 984.26 757.48 984.26 757.48 876.76"/>
          <circle class="cls-5" cx="736.23" cy="909.87" r="18.98"/>
          <circle class="cls-11" cx="731.68" cy="905.32" r="18.98"/>
          <path class="cls-2" d="M713.46,906.08c0-10.48,8.5-18.98,18.98-18.98,5.05,0,9.63,1.97,13.03,5.19-3.46-3.66-8.36-5.95-13.79-5.95-10.48,0-18.98,8.5-18.98,18.98,0,5.43,2.29,10.33,5.95,13.79-3.21-3.4-5.19-7.98-5.19-13.03Z"/>
          <path class="cls-4" d="M741.71,889.21c1.82,2.91,2.87,6.35,2.87,10.03,0,10.48-8.5,18.98-18.98,18.98-3.68,0-7.12-1.05-10.03-2.87,3.35,5.37,9.31,8.94,16.1,8.94,10.48,0,18.98-8.5,18.98-18.98,0-6.8-3.57-12.75-8.94-16.1Z"/>
          <circle class="cls-5" cx="736.23" cy="963" r="18.98"/>
          <circle class="cls-11" cx="731.68" cy="958.45" r="18.98"/>
          <path class="cls-2" d="M713.46,959.21c0-10.48,8.5-18.98,18.98-18.98,5.05,0,9.63,1.97,13.03,5.19-3.46-3.66-8.36-5.95-13.79-5.95-10.48,0-18.98,8.5-18.98,18.98,0,5.43,2.29,10.33,5.95,13.79-3.21-3.4-5.19-7.98-5.19-13.03Z"/>
          <path class="cls-4" d="M741.71,942.34c1.82,2.91,2.87,6.35,2.87,10.03,0,10.48-8.5,18.98-18.98,18.98-3.68,0-7.12-1.05-10.03-2.87,3.35,5.37,9.31,8.94,16.1,8.94,10.48,0,18.98-8.5,18.98-18.98,0-6.8-3.57-12.75-8.94-16.1Z"/>
          <polygon class="cls-6" points="811.37 985.76 758.24 985.76 705.11 985.76 705.11 1038.89 758.24 1038.89 811.37 1038.89 864.51 1038.89 864.51 985.76 811.37 985.76"/>
          <polygon class="cls-1" points="705.87 986.52 759 986.52 812.13 986.52 864.51 986.52 864.51 985.76 811.37 985.76 758.24 985.76 705.11 985.76 705.11 1038.89 705.87 1038.89 705.87 986.52"/>
          <circle class="cls-5" cx="736.23" cy="1016.88" r="18.98"/>
          <circle class="cls-11" cx="731.68" cy="1012.32" r="18.98"/>
          <path class="cls-2" d="M713.46,1013.08c0-10.48,8.5-18.98,18.98-18.98,5.05,0,9.63,1.97,13.03,5.19-3.46-3.66-8.36-5.95-13.79-5.95-10.48,0-18.98,8.5-18.98,18.98,0,5.43,2.29,10.33,5.95,13.79-3.21-3.4-5.19-7.98-5.19-13.03Z"/>
          <path class="cls-4" d="M741.71,996.22c1.82,2.91,2.87,6.35,2.87,10.03,0,10.48-8.5,18.98-18.98,18.98-3.68,0-7.12-1.05-10.03-2.87,3.35,5.37,9.31,8.94,16.1,8.94,10.48,0,18.98-8.5,18.98-18.98,0-6.8-3.57-12.75-8.94-16.1Z"/>
          <circle class="cls-5" cx="789.36" cy="1016.88" r="18.98"/>
          <circle class="cls-11" cx="784.81" cy="1012.32" r="18.98" transform="translate(-241.23 245.53) rotate(-15.44)"/>
          <path class="cls-2" d="M766.59,1013.08c0-10.48,8.5-18.98,18.98-18.98,5.05,0,9.63,1.97,13.03,5.19-3.46-3.66-8.36-5.95-13.79-5.95-10.48,0-18.98,8.5-18.98,18.98,0,5.43,2.29,10.33,5.95,13.79-3.21-3.4-5.19-7.98-5.19-13.03Z"/>
          <path class="cls-4" d="M794.84,996.22c1.82,2.91,2.87,6.35,2.87,10.03,0,10.48-8.5,18.98-18.98,18.98-3.68,0-7.12-1.05-10.03-2.87,3.35,5.37,9.31,8.94,16.1,8.94,10.48,0,18.98-8.5,18.98-18.98,0-6.8-3.57-12.75-8.94-16.1Z"/>
          <circle class="cls-5" cx="842.49" cy="1016.88" r="18.98"/>
          <circle class="cls-11" cx="837.94" cy="1012.32" r="18.98"/>
          <path class="cls-2" d="M819.72,1013.08c0-10.48,8.5-18.98,18.98-18.98,5.05,0,9.63,1.97,13.03,5.19-3.46-3.66-8.36-5.95-13.79-5.95-10.48,0-18.98,8.5-18.98,18.98,0,5.43,2.29,10.33,5.95,13.79-3.21-3.4-5.19-7.98-5.19-13.03Z"/>
          <path class="cls-4" d="M847.97,996.22c1.82,2.91,2.87,6.35,2.87,10.03,0,10.48-8.5,18.98-18.98,18.98-3.68,0-7.12-1.05-10.03-2.87,3.35,5.37,9.31,8.94,16.1,8.94,10.48,0,18.98-8.5,18.98-18.98,0-6.8-3.57-12.75-8.94-16.1Z"/>
          <line class="cls-6" x1="705.11" y1="984.26" x2="758.24" y2="985.02"/>
          <rect class="cls-6" x="705.11" y="985.02" width="53.13" height=".74"/>
          <rect class="cls-6" x="811.37" y="985.02" width="53.13" height=".74"/>
          <rect class="cls-9" x="705.11" y="984.02" width="53.13" height="1.74"/>
          <rect class="cls-9" x="811.37" y="984.01" width="53.13" height="1.74"/>
        </g>
        <g>
          <polygon class="cls-7" points="1182.09 985.76 1182.09 1038.13 1128.96 1038.13 1075.82 1038.13 1023.45 1038.13 1023.45 1038.89 1076.58 1038.89 1129.72 1038.89 1182.85 1038.89 1182.85 985.76 1182.09 985.76"/>
          <polygon class="cls-3" points="1182.09 878.98 1182.85 878.99 1182.85 985.76 1129.72 985.76 1129.72 985 1182.09 985 1182.09 878.98"/>
          <polygon class="cls-6" points="1182.09 877.24 1182.85 877.25 1182.85 984.02 1129.72 984.02 1129.72 876.51 1130.47 876.52 1182.09 877.24"/>
          <polygon class="cls-1" points="1129.72 876.51 1130.47 876.52 1130.47 984.02 1129.72 984.02 1129.72 876.51"/>
          <circle class="cls-5" cx="1160.84" cy="908.87" r="18.98"/>
          <circle class="cls-11" cx="1156.28" cy="904.32" r="18.98"/>
          <path class="cls-2" d="M1138.07,905.08c0-10.48,8.5-18.98,18.98-18.98,5.05,0,9.63,1.97,13.03,5.19-3.46-3.66-8.36-5.95-13.79-5.95-10.48,0-18.98,8.5-18.98,18.98,0,5.43,2.29,10.33,5.95,13.79-3.21-3.4-5.19-7.98-5.19-13.03Z"/>
          <path class="cls-4" d="M1166.31,888.21c1.82,2.91,2.87,6.35,2.87,10.03,0,10.48-8.5,18.98-18.98,18.98-3.68,0-7.12-1.05-10.03-2.87,3.35,5.37,9.31,8.94,16.1,8.94,10.48,0,18.98-8.5,18.98-18.98,0-6.8-3.57-12.75-8.94-16.1Z"/>
          <circle class="cls-5" cx="1160.84" cy="962" r="18.98"/>
          <circle class="cls-11" cx="1156.28" cy="957.45" r="18.98" transform="translate(-41.21 1862.82) rotate(-76.72)"/>
          <path class="cls-2" d="M1138.07,958.21c0-10.48,8.5-18.98,18.98-18.98,5.05,0,9.63,1.97,13.03,5.19-3.46-3.66-8.36-5.95-13.79-5.95-10.48,0-18.98,8.5-18.98,18.98,0,5.43,2.29,10.33,5.95,13.79-3.21-3.4-5.19-7.98-5.19-13.03Z"/>
          <path class="cls-4" d="M1166.31,941.34c1.82,2.91,2.87,6.35,2.87,10.03,0,10.48-8.5,18.98-18.98,18.98-3.68,0-7.12-1.05-10.03-2.87,3.35,5.37,9.31,8.94,16.1,8.94,10.48,0,18.98-8.5,18.98-18.98,0-6.8-3.57-12.75-8.94-16.1Z"/>
          <polygon class="cls-6" points="1075.82 876.76 1076.58 876.77 1076.58 985.02 1023.45 985.02 1023.45 876.03 1024.21 876.04 1075.82 876.76"/>
          <polygon class="cls-3" points="1075.82 876.76 1076.58 876.77 1076.58 985.02 1023.45 985.02 1023.45 984.26 1075.82 984.26 1075.82 876.76"/>
          <circle class="cls-5" cx="1054.57" cy="909.87" r="18.98"/>
          <circle class="cls-11" cx="1050.02" cy="905.32" r="18.98"/>
          <path class="cls-2" d="M1031.8,906.08c0-10.48,8.5-18.98,18.98-18.98,5.05,0,9.63,1.97,13.03,5.19-3.46-3.66-8.36-5.95-13.79-5.95-10.48,0-18.98,8.5-18.98,18.98,0,5.43,2.29,10.33,5.95,13.79-3.21-3.4-5.19-7.98-5.19-13.03Z"/>
          <path class="cls-4" d="M1060.05,889.21c1.82,2.91,2.87,6.35,2.87,10.03,0,10.48-8.5,18.98-18.98,18.98-3.68,0-7.12-1.05-10.03-2.87,3.35,5.37,9.31,8.94,16.1,8.94,10.48,0,18.98-8.5,18.98-18.98,0-6.8-3.57-12.75-8.94-16.1Z"/>
          <circle class="cls-5" cx="1054.57" cy="963" r="18.98"/>
          <circle class="cls-11" cx="1050.02" cy="958.45" r="18.98"/>
          <path class="cls-2" d="M1031.8,959.21c0-10.48,8.5-18.98,18.98-18.98,5.05,0,9.63,1.97,13.03,5.19-3.46-3.66-8.36-5.95-13.79-5.95-10.48,0-18.98,8.5-18.98,18.98,0,5.43,2.29,10.33,5.95,13.79-3.21-3.4-5.19-7.98-5.19-13.03Z"/>
          <path class="cls-4" d="M1060.05,942.34c1.82,2.91,2.87,6.35,2.87,10.03,0,10.48-8.5,18.98-18.98,18.98-3.68,0-7.12-1.05-10.03-2.87,3.35,5.37,9.31,8.94,16.1,8.94,10.48,0,18.98-8.5,18.98-18.98,0-6.8-3.57-12.75-8.94-16.1Z"/>
          <polygon class="cls-6" points="1129.72 985.76 1076.58 985.76 1023.45 985.76 1023.45 1038.89 1076.58 1038.89 1129.72 1038.89 1182.85 1038.89 1182.85 985.76 1129.72 985.76"/>
          <polygon class="cls-1" points="1024.21 986.52 1077.34 986.52 1130.47 986.52 1182.85 986.52 1182.85 985.76 1129.72 985.76 1076.58 985.76 1023.45 985.76 1023.45 1038.89 1024.21 1038.89 1024.21 986.52"/>
          <circle class="cls-5" cx="1054.57" cy="1016.88" r="18.98"/>
          <circle class="cls-11" cx="1050.02" cy="1012.32" r="18.98"/>
          <path class="cls-2" d="M1031.8,1013.08c0-10.48,8.5-18.98,18.98-18.98,5.05,0,9.63,1.97,13.03,5.19-3.46-3.66-8.36-5.95-13.79-5.95-10.48,0-18.98,8.5-18.98,18.98,0,5.43,2.29,10.33,5.95,13.79-3.21-3.4-5.19-7.98-5.19-13.03Z"/>
          <path class="cls-4" d="M1060.05,996.22c1.82,2.91,2.87,6.35,2.87,10.03,0,10.48-8.5,18.98-18.98,18.98-3.68,0-7.12-1.05-10.03-2.87,3.35,5.37,9.31,8.94,16.1,8.94,10.48,0,18.98-8.5,18.98-18.98,0-6.8-3.57-12.75-8.94-16.1Z"/>
          <circle class="cls-5" cx="1107.7" cy="1016.88" r="18.98"/>
          <circle class="cls-11" cx="1103.15" cy="1012.32" r="18.98" transform="translate(-229.73 330.3) rotate(-15.44)"/>
          <path class="cls-2" d="M1084.93,1013.08c0-10.48,8.5-18.98,18.98-18.98,5.05,0,9.63,1.97,13.03,5.19-3.46-3.66-8.36-5.95-13.79-5.95-10.48,0-18.98,8.5-18.98,18.98,0,5.43,2.29,10.33,5.95,13.79-3.21-3.4-5.19-7.98-5.19-13.03Z"/>
          <path class="cls-4" d="M1113.18,996.22c1.82,2.91,2.87,6.35,2.87,10.03,0,10.48-8.5,18.98-18.98,18.98-3.68,0-7.12-1.05-10.03-2.87,3.35,5.37,9.31,8.94,16.1,8.94,10.48,0,18.98-8.5,18.98-18.98,0-6.8-3.57-12.75-8.94-16.1Z"/>
          <circle class="cls-5" cx="1160.84" cy="1016.88" r="18.98"/>
          <circle class="cls-11" cx="1156.28" cy="1012.32" r="18.98"/>
          <path class="cls-2" d="M1138.06,1013.08c0-10.48,8.5-18.98,18.98-18.98,5.05,0,9.63,1.97,13.03,5.19-3.46-3.66-8.36-5.95-13.79-5.95-10.48,0-18.98,8.5-18.98,18.98,0,5.43,2.29,10.33,5.95,13.79-3.21-3.4-5.19-7.98-5.19-13.03Z"/>
          <path class="cls-4" d="M1166.31,996.22c1.82,2.91,2.87,6.35,2.87,10.03,0,10.48-8.5,18.98-18.98,18.98-3.68,0-7.12-1.05-10.03-2.87,3.35,5.37,9.31,8.94,16.1,8.94,10.48,0,18.98-8.5,18.98-18.98,0-6.8-3.57-12.75-8.94-16.1Z"/>
          <line class="cls-6" x1="1023.45" y1="984.26" x2="1076.58" y2="985.02"/>
          <rect class="cls-6" x="1023.45" y="985.02" width="53.13" height=".74"/>
          <rect class="cls-6" x="1129.72" y="985.02" width="53.13" height=".74"/>
          <rect class="cls-9" x="1023.45" y="984.02" width="53.13" height="1.74"/>
          <rect class="cls-9" x="1129.72" y="984.01" width="53.13" height="1.74"/>
        </g>
      </g>
    </g>
  </g>
</svg>